<svg width="48" height="48" xmlns="http://www.w3.org/2000/svg" xmlns:svg="http://www.w3.org/2000/svg">
 <!-- Created with SVG-edit - http://svg-edit.googlecode.com/ -->
 <g>
  <title>Layer left menu sub advanced</title>
  <path stroke="#000000" id="svg_1" d="m39.15311,24.12745l-5.90244,-2.34248l4.7547,-11.97772c0.42453,-1.0689 -0.09703,-2.28183 -1.16896,-2.70636c-1.07193,-0.42453 -2.28335,0.09855 -2.70636,1.16896l-4.7547,11.97772l-7.39889,-2.93682l4.75318,-11.97772c0.42604,-1.07041 -0.09703,-2.28335 -1.16745,-2.70787c-1.07041,-0.42301 -2.28335,0.09855 -2.70636,1.16896l-4.7547,11.97772l-5.8994,-2.34096l-2.44709,6.16473l3.25976,1.29481l-3.84652,9.68982c-0.92486,2.3349 0.21681,4.97758 2.55171,5.90547l2.46529,0.97944l-1.32968,3.34618c-0.61708,1.55407 0.14404,3.31737 1.70114,3.93597l1.41004,0.55947c1.55559,0.6186 3.31737,-0.14404 3.93597,-1.69962l1.32968,-3.34618l2.81704,1.11741c2.3349,0.92638 4.97909,-0.2153 5.90699,-2.55019l3.84348,-9.68982l2.90801,1.1538l2.44558,-6.16473z" stroke-linecap="null" stroke-linejoin="null" stroke-dasharray="null" stroke-width="0" fill="#ffffff"/>
 </g>
</svg>