<svg width="48" height="48" xmlns="http://www.w3.org/2000/svg" xmlns:svg="http://www.w3.org/2000/svg">
 <!-- Created with SVG-edit - http://svg-edit.googlecode.com/ -->
 <g>
  <title>Layer left menu sub alarm</title>
  <path stroke="#000000" id="svg_1" d="m26.87905,30.77704l-1.11967,-3.91885c0.32813,-0.28783 0.63611,-0.59582 0.92682,-0.92538l3.91597,1.11967c0.41304,-0.60157 0.76852,-1.24056 1.08657,-1.90402l-2.91431,-2.82077c0.1396,-0.41448 0.26049,-0.83616 0.34684,-1.27078l3.92749,-0.98439c0.02878,-0.36267 0.05613,-0.72678 0.05613,-1.09808s-0.02878,-0.73398 -0.05613,-1.09665l-3.92749,-0.98439c-0.08779,-0.43463 -0.20868,-0.8563 -0.34684,-1.27078l2.91575,-2.82077c-0.3195,-0.66202 -0.67497,-1.30245 -1.08801,-1.90402l-3.91597,1.11823c-0.28927,-0.32813 -0.59869,-0.63611 -0.92682,-0.92538l1.11967,-3.91741c-0.60157,-0.4116 -1.242,-0.76852 -1.90546,-1.08657l-2.82077,2.91575c-0.41304,-0.1396 -0.83616,-0.25905 -1.27078,-0.34684l-0.98295,-3.92893c-0.36411,-0.02734 -0.72678,-0.05613 -1.09808,-0.05613s-0.73398,0.02878 -1.09665,0.05613l-0.98439,3.92893c-0.43463,0.08779 -0.8563,0.20724 -1.27078,0.34684l-2.82077,-2.91575c-0.66202,0.32237 -1.30101,0.67785 -1.90258,1.09089l1.11967,3.91741c-0.32813,0.28783 -0.63755,0.59725 -0.92538,0.92395l-3.91741,-1.11967c-0.41304,0.60157 -0.76852,1.242 -1.08657,1.90546l2.91575,2.82077c-0.13816,0.41448 -0.25905,0.83616 -0.34684,1.27078l-3.92893,0.98439c-0.02734,0.36267 -0.05613,0.72678 -0.05613,1.09665s0.02878,0.73398 0.05613,1.09808l3.92893,0.98439c0.08779,0.43463 0.20868,0.8563 0.34684,1.27078l-2.91575,2.82077c0.31806,0.66202 0.67353,1.30245 1.08657,1.90402l3.91741,-1.11967c0.28783,0.32957 0.59725,0.63611 0.92538,0.92538l-1.11967,3.91885c0.60157,0.4116 1.242,0.76708 1.90402,1.08657l2.82077,-2.91575c0.41448,0.1396 0.83616,0.26049 1.27078,0.34684l0.98439,3.92749c0.36267,0.02878 0.72678,0.05613 1.09808,0.05613s0.73398,-0.02878 1.09808,-0.05613l0.98295,-3.92749c0.43463,-0.08779 0.85774,-0.20868 1.27078,-0.34684l2.82077,2.91575c0.66058,-0.32237 1.30101,-0.67785 1.90258,-1.08945zm-8.07661,-6.90944c-2.70132,0 -4.89173,-2.19041 -4.89173,-4.89173s2.19041,-4.89029 4.89173,-4.89029s4.89029,2.18897 4.89029,4.89029s-2.18897,4.89173 -4.89029,4.89173zm22.29558,10.22528c0.02734,-0.78722 -0.08635,-1.58884 -0.33101,-2.38038l1.79032,-2.55164c-0.27056,-0.50371 -0.57567,-0.98151 -0.92251,-1.41614l-3.05391,0.64043c-0.61596,-0.52386 -1.31684,-0.93258 -2.06664,-1.22473l-0.87933,-2.99203c-0.55552,-0.09786 -1.11823,-0.15111 -1.68814,-0.15255l-1.40175,2.78623c-0.40153,0.07772 -0.80306,0.18421 -1.19739,0.33533c-0.36987,0.14104 -0.71527,0.31662 -1.04627,0.50803l-2.88697,-1.17868c-0.42743,0.37706 -0.81745,0.78435 -1.17004,1.22617l1.30532,2.83228c-0.37274,0.71239 -0.62892,1.47946 -0.74693,2.28108l-2.72147,1.52552c0.02734,0.5584 0.10938,1.11679 0.23602,1.67663l3.02801,0.74693c0.33245,0.75412 0.77859,1.42909 1.31828,2.00476l-0.50659,3.07694c0.46053,0.33101 0.94985,0.61596 1.45788,0.8635l2.46817,-1.8997c0.77139,0.20292 1.57877,0.28064 2.3919,0.21588l2.08967,2.31274c0.28783,-0.08203 0.57423,-0.16982 0.85774,-0.27776c0.25185,-0.09499 0.48932,-0.20724 0.72678,-0.32093l0.05325,-3.1158c0.65482,-0.48788 1.21322,-1.07506 1.65792,-1.73564l3.11004,-0.19285c0.21875,-0.51666 0.40153,-1.05347 0.52961,-1.60467l-2.40197,-1.98893zm-5.99125,2.88841c-1.72844,0.65914 -3.66268,-0.20724 -4.32326,-1.93568s0.2058,-3.66412 1.93424,-4.3247c1.72844,-0.65914 3.66556,0.20724 4.32614,1.93568c0.65914,1.72844 -0.20868,3.66412 -1.93712,4.3247z" stroke-linecap="null" stroke-linejoin="null" stroke-dasharray="null" stroke-width="0" fill="#ffffff"/>
 </g>
</svg>