<svg width="48" height="48" xmlns="http://www.w3.org/2000/svg" xmlns:svg="http://www.w3.org/2000/svg">
 <g>
  <title>Layer overview off</title>
  <path stroke="#666666" fill-opacity="0" id="svg_1" d="m24,11.35715c-11.63958,0 -20.82353,12.64204 -20.82353,12.64204s9.18395,12.64368 20.82353,12.64368c8.90167,0 20.82353,-12.64368 20.82353,-12.64368s-11.92186,-12.64204 -20.82353,-12.64204zm0,20.51996c-4.08604,0 -7.41472,-3.53499 -7.41472,-7.87792s3.32868,-7.87792 7.41472,-7.87792s7.41472,3.53662 7.41472,7.87792s-3.32868,7.87792 -7.41472,7.87792zm0,-12.47652c-2.38931,0 -4.32821,2.05839 -4.32821,4.59859c0,2.54021 1.93736,4.59859 4.32821,4.59859c2.39085,0 4.32821,-2.05839 4.32821,-4.59859c0,-2.53857 -1.93736,-4.59859 -4.32821,-4.59859z" stroke-width="5" fill="#000000"/>
 </g>
</svg>